<svg width="20" height="20" viewBox="0 0 20 20" fill="none" xmlns="http://www.w3.org/2000/svg">
<path fill-rule="evenodd" clip-rule="evenodd" d="M10 20C15.5228 20 20 15.5228 20 10C20 4.47715 15.5228 0 10 0C4.47715 0 0 4.47715 0 10C0 15.5228 4.47715 20 10 20ZM10 18.3333C14.6024 18.3333 18.3333 14.6024 18.3333 10C18.3333 5.39763 14.6024 1.66667 10 1.66667C5.39763 1.66667 1.66667 5.39763 1.66667 10C1.66667 14.6024 5.39763 18.3333 10 18.3333Z" fill="url(#paint0_angular_564_18505)"/>
<path fill-rule="evenodd" clip-rule="evenodd" d="M18.9846 8.00059C19.4411 7.9417 19.8588 8.26399 19.9177 8.72045C19.9725 9.14477 19.9999 9.57217 19.9999 10C19.9999 10.4603 19.6268 10.8333 19.1666 10.8333C18.7064 10.8333 18.3333 10.4603 18.3333 10C18.3333 9.64348 18.3104 9.28731 18.2648 8.93371C18.2059 8.47725 18.5282 8.05949 18.9846 8.00059Z" fill="white"/>
<defs>
<radialGradient id="paint0_angular_564_18505" cx="0" cy="0" r="1" gradientUnits="userSpaceOnUse" gradientTransform="translate(10 10) scale(10)">
<stop stop-color="white" stop-opacity="0"/>
<stop offset="0.0001" stop-color="white" stop-opacity="0"/>
<stop offset="1" stop-color="white"/>
</radialGradient>
</defs>
</svg>
