<svg width="20" height="21" viewBox="0 0 20 21" fill="none" xmlns="http://www.w3.org/2000/svg">
<path d="M4 7.4076C3.87699 7.40443 3.78767 7.39731 3.70736 7.38133C3.11233 7.26297 2.64718 6.79783 2.52882 6.20279C2.5 6.05789 2.5 5.88365 2.5 5.53516C2.5 5.18667 2.5 5.01242 2.52882 4.86752C2.64718 4.27248 3.11233 3.80734 3.70736 3.68898C3.85226 3.66016 4.02651 3.66016 4.375 3.66016H15.625C15.9735 3.66016 16.1477 3.66016 16.2926 3.68898C16.8877 3.80734 17.3528 4.27248 17.4712 4.86752C17.5 5.01242 17.5 5.18667 17.5 5.53516C17.5 5.88365 17.5 6.05789 17.4712 6.20279C17.3528 6.79783 16.8877 7.26297 16.2926 7.38133C16.2123 7.39731 16.123 7.40443 16 7.4076M8.5 11.1602H11.5M4 7.41016H16V13.5602C16 14.8203 16 15.4503 15.7548 15.9316C15.539 16.355 15.1948 16.6992 14.7715 16.9149C14.2902 17.1602 13.6601 17.1602 12.4 17.1602H7.6C6.33988 17.1602 5.70982 17.1602 5.22852 16.9149C4.80516 16.6992 4.46095 16.355 4.24524 15.9316C4 15.4503 4 14.8203 4 13.5602V7.41016Z" stroke="#2B2B2B" stroke-width="1.75" stroke-linecap="round" stroke-linejoin="round"/>
</svg>
