<svg width="16" height="16" viewBox="0 0 16 16" fill="none" xmlns="http://www.w3.org/2000/svg">
<path d="M13.4016 6.8H2.60156M10.4016 2V4.4M5.60156 2V4.4M5.48156 14H10.5216C11.5297 14 12.0337 14 12.4187 13.8038C12.7574 13.6312 13.0328 13.3559 13.2054 13.0172C13.4016 12.6321 13.4016 12.1281 13.4016 11.12V6.08C13.4016 5.07191 13.4016 4.56786 13.2054 4.18282C13.0328 3.84413 12.7574 3.56876 12.4187 3.39619C12.0337 3.2 11.5297 3.2 10.5216 3.2H5.48156C4.47347 3.2 3.96942 3.2 3.58438 3.39619C3.24569 3.56876 2.97032 3.84413 2.79775 4.18282C2.60156 4.56786 2.60156 5.07191 2.60156 6.08V11.12C2.60156 12.1281 2.60156 12.6321 2.79775 13.0172C2.97032 13.3559 3.24569 13.6312 3.58438 13.8038C3.96942 14 4.47347 14 5.48156 14Z" stroke="#727272" stroke-width="1.5" stroke-linecap="round" stroke-linejoin="round"/>
</svg>
