<svg width="24" height="24" viewBox="0 0 24 24" fill="none" xmlns="http://www.w3.org/2000/svg">
<path d="M3 10.9315C3 10.3572 3 10.07 3.07403 9.80551C3.1396 9.57124 3.24737 9.3509 3.39203 9.15531C3.55534 8.93451 3.78202 8.7582 4.23539 8.40558L11.0177 3.13045C11.369 2.8572 11.5447 2.72057 11.7387 2.66806C11.9098 2.62172 12.0902 2.62172 12.2613 2.66806C12.4553 2.72057 12.631 2.8572 12.9823 3.13045L19.7646 8.40558C20.218 8.7582 20.4447 8.93451 20.608 9.15531C20.7526 9.3509 20.8604 9.57124 20.926 9.80551C21 10.07 21 10.3572 21 10.9315V18.1664C21 19.2865 21 19.8466 20.782 20.2744C20.5903 20.6507 20.2843 20.9567 19.908 21.1485C19.4802 21.3664 18.9201 21.3664 17.8 21.3664H6.2C5.07989 21.3664 4.51984 21.3664 4.09202 21.1485C3.71569 20.9567 3.40973 20.6507 3.21799 20.2744C3 19.8466 3 19.2865 3 18.1664V10.9315Z" stroke="#727272" stroke-width="2" stroke-linecap="round" stroke-linejoin="round"/>
</svg>
