<svg width="20" height="21" viewBox="0 0 20 21" fill="none" xmlns="http://www.w3.org/2000/svg">
<path d="M11.0958 10.411L15.6792 10.411M15.7497 10.6539L17.6955 16.4661C17.8483 16.9227 17.9248 17.151 17.8699 17.2916C17.8223 17.4137 17.72 17.5063 17.5938 17.5415C17.4484 17.5821 17.2288 17.4833 16.7897 17.2857L2.8635 11.0189C2.43489 10.826 2.22059 10.7296 2.15436 10.5956C2.09681 10.4792 2.09681 10.3427 2.15436 10.2263C2.22059 10.0923 2.4349 9.99588 2.8635 9.80301L16.7946 3.53406C17.2324 3.33706 17.4513 3.23856 17.5965 3.27896C17.7226 3.31405 17.8249 3.40638 17.8727 3.52825C17.9277 3.66857 17.8521 3.89639 17.7009 4.35202L15.7492 10.2322C15.7232 10.3105 15.7102 10.3496 15.7051 10.3896C15.7005 10.4251 15.7006 10.4611 15.7052 10.4966C15.7105 10.5366 15.7235 10.5757 15.7497 10.6539Z" stroke="#727272" stroke-width="1.75" stroke-linecap="round" stroke-linejoin="round"/>
</svg>
