<svg width="20" height="21" viewBox="0 0 20 21" fill="none" xmlns="http://www.w3.org/2000/svg">
<path d="M8.04384 16.0283L8.48217 17.0142C8.61248 17.3076 8.82513 17.557 9.09434 17.732C9.36355 17.9069 9.67776 18.0001 9.99884 18C10.3199 18.0001 10.6341 17.9069 10.9033 17.732C11.1725 17.557 11.3852 17.3076 11.5155 17.0142L11.9538 16.0283C12.1099 15.6785 12.3723 15.3869 12.7038 15.195C13.0374 15.0026 13.4233 14.9206 13.8063 14.9608L14.8788 15.075C15.1981 15.1088 15.5203 15.0492 15.8064 14.9035C16.0924 14.7578 16.3301 14.5322 16.4905 14.2542C16.6511 13.9763 16.7277 13.6577 16.7108 13.3372C16.6939 13.0166 16.5844 12.7079 16.3955 12.4483L15.7605 11.5758C15.5344 11.2628 15.4136 10.8861 15.4155 10.5C15.4154 10.1149 15.5374 9.73976 15.7638 9.42833L16.3988 8.55583C16.5877 8.29632 16.6973 7.98755 16.7141 7.66701C16.731 7.34646 16.6545 7.02791 16.4938 6.75C16.3334 6.47193 16.0958 6.24637 15.8097 6.10067C15.5236 5.95497 15.2014 5.8954 14.8822 5.92917L13.8097 6.04333C13.4267 6.08356 13.0408 6.00159 12.7072 5.80917C12.375 5.61619 12.1125 5.32302 11.9572 4.97167L11.5155 3.98583C11.3852 3.69238 11.1725 3.44304 10.9033 3.26805C10.6341 3.09306 10.3199 2.99995 9.99884 3C9.67776 2.99995 9.36355 3.09306 9.09434 3.26805C8.82513 3.44304 8.61248 3.69238 8.48217 3.98583L8.04384 4.97167C7.88854 5.32302 7.626 5.61619 7.29384 5.80917C6.96025 6.00159 6.57434 6.08356 6.19134 6.04333L5.11551 5.92917C4.79625 5.8954 4.47406 5.95497 4.18799 6.10067C3.90193 6.24637 3.66427 6.47193 3.50384 6.75C3.34321 7.02791 3.26668 7.34646 3.28354 7.66701C3.3004 7.98755 3.40993 8.29632 3.59884 8.55583L4.23384 9.42833C4.4603 9.73976 4.58224 10.1149 4.58217 10.5C4.58224 10.8851 4.4603 11.2602 4.23384 11.5717L3.59884 12.4442C3.40993 12.7037 3.3004 13.0124 3.28354 13.333C3.26668 13.6535 3.34321 13.9721 3.50384 14.25C3.66443 14.5279 3.90211 14.7534 4.18814 14.899C4.47417 15.0447 4.79628 15.1044 5.11551 15.0708L6.18801 14.9567C6.57101 14.9164 6.95692 14.9984 7.29051 15.1908C7.6239 15.3833 7.88766 15.6765 8.04384 16.0283Z" stroke="#727272" stroke-width="1.75" stroke-linecap="round" stroke-linejoin="round"/>
<path d="M9.9975 12.75C11.2401 12.75 12.2475 11.7426 12.2475 10.5C12.2475 9.25736 11.2401 8.25 9.9975 8.25C8.75486 8.25 7.7475 9.25736 7.7475 10.5C7.7475 11.7426 8.75486 12.75 9.9975 12.75Z" stroke="#727272" stroke-width="1.75" stroke-linecap="round" stroke-linejoin="round"/>
</svg>
