<svg width="24" height="24" viewBox="0 0 24 24" fill="none" xmlns="http://www.w3.org/2000/svg">
<path d="M2.05469 2H3.36085C3.60687 2 3.72988 2 3.82887 2.04524C3.91611 2.08511 3.99003 2.14922 4.04184 2.22995C4.10062 2.32154 4.11802 2.44332 4.15281 2.68686L4.62612 6M4.62612 6L5.67801 13.7314C5.81149 14.7125 5.87824 15.2031 6.11279 15.5723C6.31947 15.8977 6.61577 16.1564 6.96604 16.3174C7.36355 16.5 7.85863 16.5 8.84879 16.5H17.4067C18.3492 16.5 18.8205 16.5 19.2056 16.3304C19.5452 16.1809 19.8365 15.9398 20.047 15.6342C20.2856 15.2876 20.3738 14.8247 20.5502 13.8988L21.8738 6.94969C21.9359 6.62381 21.9669 6.46087 21.9219 6.3335C21.8825 6.22177 21.8046 6.12768 21.7022 6.06802C21.5855 6 21.4197 6 21.0879 6H4.62612ZM10.0547 21C10.0547 21.5523 9.60697 22 9.05469 22C8.5024 22 8.05469 21.5523 8.05469 21C8.05469 20.4477 8.5024 20 9.05469 20C9.60697 20 10.0547 20.4477 10.0547 21ZM18.0547 21C18.0547 21.5523 17.607 22 17.0547 22C16.5024 22 16.0547 21.5523 16.0547 21C16.0547 20.4477 16.5024 20 17.0547 20C17.607 20 18.0547 20.4477 18.0547 21Z" stroke="white" stroke-width="2" stroke-linecap="round" stroke-linejoin="round"/>
</svg>
