<svg width="20" height="20" viewBox="0 0 20 20" fill="none" xmlns="http://www.w3.org/2000/svg">
<path d="M13.2 5.2V4.56C13.2 3.66392 13.2 3.21587 13.0257 2.87362C12.8723 2.57256 12.6275 2.32779 12.3264 2.17439C11.9842 2 11.5361 2 10.64 2H9.36005C8.46396 2 8.01592 2 7.67366 2.17439C7.3726 2.32779 7.12784 2.57256 6.97444 2.87362C6.80005 3.21587 6.80005 3.66392 6.80005 4.56V5.2M2.80005 5.2H17.2M15.6 5.2V14.16C15.6 15.5041 15.6 16.1762 15.3385 16.6896C15.1084 17.1412 14.7412 17.5083 14.2896 17.7384C13.7762 18 13.1042 18 11.76 18H8.24005C6.89592 18 6.22386 18 5.71047 17.7384C5.25888 17.5083 4.89173 17.1412 4.66163 16.6896C4.40005 16.1762 4.40005 15.5041 4.40005 14.16V5.2" stroke="#727272" stroke-width="1.75" stroke-linecap="round" stroke-linejoin="round"/>
</svg>
