<svg width="24" height="24" viewBox="0 0 24 24" fill="none" xmlns="http://www.w3.org/2000/svg">
<path d="M2.05664 2H3.3628C3.60882 2 3.73183 2 3.83082 2.04524C3.91806 2.08511 3.99199 2.14922 4.04379 2.22995C4.10258 2.32154 4.11997 2.44332 4.15476 2.68686L4.62807 6M4.62807 6L5.67996 13.7314C5.81345 14.7125 5.88019 15.2031 6.11474 15.5723C6.32142 15.8977 6.61772 16.1564 6.968 16.3174C7.3655 16.5 7.86058 16.5 8.85075 16.5H17.4086C18.3512 16.5 18.8225 16.5 19.2076 16.3304C19.5472 16.1809 19.8385 15.9398 20.0489 15.6342C20.2876 15.2876 20.3758 14.8247 20.5521 13.8988L21.8757 6.94969C21.9378 6.62381 21.9689 6.46087 21.9239 6.3335C21.8844 6.22177 21.8066 6.12768 21.7042 6.06802C21.5875 6 21.4216 6 21.0899 6H4.62807ZM10.0566 21C10.0566 21.5523 9.60893 22 9.05664 22C8.50436 22 8.05664 21.5523 8.05664 21C8.05664 20.4477 8.50436 20 9.05664 20C9.60893 20 10.0566 20.4477 10.0566 21ZM18.0566 21C18.0566 21.5523 17.6089 22 17.0566 22C16.5044 22 16.0566 21.5523 16.0566 21C16.0566 20.4477 16.5044 20 17.0566 20C17.6089 20 18.0566 20.4477 18.0566 21Z" stroke="#727272" stroke-width="2" stroke-linecap="round" stroke-linejoin="round"/>
</svg>
