<svg width="62" height="39" viewBox="0 0 62 39" fill="none" xmlns="http://www.w3.org/2000/svg">
<path d="M26.5894 13.3506H21.1094V18.8306H26.5894V13.3506Z" fill="#D71920"/>
<path d="M28.2305 0V25.35L33.7105 19.62V0H28.2305Z" fill="#D71920"/>
<path d="M53.6278 31.5602H40.7578V32.1501H53.6278V31.5602ZM53.6278 30.5802H40.7578V31.1702H53.6278V30.5802ZM53.6278 29.6002H40.7578V30.1902H53.6278V29.6002ZM53.6278 28.6201H40.7578V29.2102H53.6278V28.6201ZM53.6278 27.6402H40.7578V28.2302H53.6278V27.6402ZM53.6278 26.6602H40.7578V27.2502H53.6278V26.6602Z" fill="#D71920"/>
<mask id="mask0_650_24596" style="mask-type:luminance" maskUnits="userSpaceOnUse" x="0" y="0" width="62" height="39">
<path d="M61.56 0H0V38.41H61.56V0Z" fill="white"/>
</mask>
<g mask="url(#mask0_650_24596)">
<path d="M35.7712 19.44L40.7612 14.22V0H35.2812V32.14H40.7612V19.44H35.7712ZM61.5612 1.54001H53.7312L37.1912 18.83H41.8212H50.1112C52.0612 18.83 53.6312 20.41 53.6312 22.35V30.64V32.14H59.1112V22.35C59.1112 17.43 55.1613 13.43 50.2513 13.35L61.5612 1.54001Z" fill="#D71920"/>
</g>
<path d="M17.6406 38.4103H25.4706L33.7106 29.7603V21.5703L17.6406 38.4103Z" fill="#D71920"/>
<mask id="mask1_650_24596" style="mask-type:luminance" maskUnits="userSpaceOnUse" x="0" y="0" width="62" height="39">
<path d="M61.56 0H0V38.41H61.56V0Z" fill="white"/>
</mask>
<g mask="url(#mask1_650_24596)">
<path d="M13.72 27.45H26.22L26.78 26.86H18.84H11.01L10.45 27.45H13.72ZM13.72 28.43H25.29L25.85 27.84H17.91H10.08L9.51999 28.43H13.72ZM13.72 29.4H24.35L24.91 28.81H16.97H9.13998L8.57999 29.4H13.72ZM22.48 31.36L23.04 30.77H13.72H7.26999L5.39999 32.72L3.34 34.88L0 38.41H7.82999L14.54 31.36H22.48ZM7.64999 30.38H13.73H23.42L23.98 29.79H16.04H8.20999L7.64999 30.38ZM19.48 13.35H14H9.67999V13.39C5.07999 13.79 1.46997 17.65 1.46997 22.35C1.46997 25.69 3.28999 28.6 5.98999 30.15L10.11 25.84C8.32999 25.66 6.93997 24.18 6.93997 22.35C6.93997 20.4 8.51999 18.83 10.46 18.83H13.98V21.78V22.35V23.74L11.38 26.46H13.71H27.15L27.71 25.87H19.47V23.97V19.55V18.83V13.35H19.48Z" fill="#D71920"/>
</g>
<mask id="mask2_650_24596" style="mask-type:luminance" maskUnits="userSpaceOnUse" x="0" y="0" width="62" height="39">
<path d="M61.56 0H0V38.41H61.56V0Z" fill="white"/>
</mask>
<g mask="url(#mask2_650_24596)">
<path d="M35.3612 36.3499L36.1712 35.4999V33.1899H35.2812V38.3999H36.1712V36.3399H35.3612V36.3499ZM39.5412 33.45H38.2712L35.5912 36.2499H36.3412H37.6812C38.0012 36.2499 38.2513 36.5099 38.2513 36.8199V38.1599V38.3999H39.1412V36.8099C39.1412 36.0099 38.5012 35.3599 37.7012 35.3499L39.5412 33.45Z" fill="#D71920"/>
</g>
<mask id="mask3_650_24596" style="mask-type:luminance" maskUnits="userSpaceOnUse" x="0" y="0" width="62" height="39">
<path d="M61.56 0H0V38.41H61.56V0Z" fill="white"/>
</mask>
<g mask="url(#mask3_650_24596)">
<path d="M56.2611 37.5201V36.7101V35.36C56.2611 35.04 56.5211 34.79 56.8311 34.79H58.0411V36.95C58.0411 37.27 57.7811 37.5201 57.4711 37.5201H56.2611ZM55.3711 38.41H55.8811H56.2611H57.4711C58.2711 38.41 58.9211 37.77 58.9311 36.97V34.79V34.4601V33.9H56.8111C56.0111 33.91 55.3711 34.56 55.3711 35.36V38.41Z" fill="#D71920"/>
</g>
<mask id="mask4_650_24596" style="mask-type:luminance" maskUnits="userSpaceOnUse" x="0" y="0" width="62" height="39">
<path d="M61.56 0H0V38.41H61.56V0Z" fill="white"/>
</mask>
<g mask="url(#mask4_650_24596)">
<path d="M42.6717 36.25H41.4617C41.1417 36.25 40.8917 36.51 40.8917 36.82V37.5201H42.1017C42.4217 37.5201 42.6717 37.26 42.6717 36.95V36.7101V36.25ZM40.5217 33.91H42.1117C42.9117 33.91 43.5617 34.55 43.5717 35.35V35.37V35.94V36.26V36.98V38.42H42.6817V38.3C42.5017 38.38 42.3117 38.42 42.1117 38.42H40.9017H40.5217H40.0117V36.83C40.0117 36.03 40.6517 35.38 41.4517 35.37H42.6817C42.6817 35.05 42.4217 34.8 42.1117 34.8H40.7617H40.5217V33.91Z" fill="#D71920"/>
</g>
<mask id="mask5_650_24596" style="mask-type:luminance" maskUnits="userSpaceOnUse" x="0" y="0" width="62" height="39">
<path d="M61.56 0H0V38.41H61.56V0Z" fill="white"/>
</mask>
<g mask="url(#mask5_650_24596)">
<path d="M49.3419 36.25H48.1319C47.8119 36.25 47.5619 36.51 47.5619 36.82V37.5201H48.7719C49.0919 37.5201 49.3419 37.26 49.3419 36.95V36.7101V36.25ZM47.1819 33.91H48.7719C49.5719 33.91 50.2219 34.55 50.2319 35.35V35.37V35.94V36.26V36.98V38.42H49.3419V38.3C49.1719 38.38 48.9719 38.42 48.7719 38.42H47.5619H47.1819H46.6719V36.83C46.6719 36.03 47.3119 35.38 48.1119 35.37H49.3419C49.3419 35.05 49.0819 34.8 48.7719 34.8H47.4219H47.1819V33.91Z" fill="#D71920"/>
</g>
<mask id="mask6_650_24596" style="mask-type:luminance" maskUnits="userSpaceOnUse" x="0" y="0" width="62" height="39">
<path d="M61.56 0H0V38.41H61.56V0Z" fill="white"/>
</mask>
<g mask="url(#mask6_650_24596)">
<path d="M45.8819 33.91C45.6819 33.91 45.4819 33.95 45.3119 34.03V33.91H44.4219V35.35V35.88V38.42H45.3119V36.72V35.38C45.3119 35.06 45.5719 34.81 45.8819 34.81H46.2919V33.92H45.8819V33.91Z" fill="#D71920"/>
</g>
<mask id="mask7_650_24596" style="mask-type:luminance" maskUnits="userSpaceOnUse" x="0" y="0" width="62" height="39">
<path d="M61.56 0H0V38.41H61.56V0Z" fill="white"/>
</mask>
<g mask="url(#mask7_650_24596)">
<path d="M53.0481 33.91H52.9481H52.8981H52.5381C52.3381 33.91 52.1381 33.95 51.9681 34.03V33.91H51.0781V35.35V35.88V38.42H51.9681V36.72V35.38C51.9681 35.06 52.2281 34.81 52.5381 34.81H52.8981H52.9481H53.0481C53.3681 34.81 53.6181 35.07 53.6181 35.38V36.72V38.42H54.5081V35.35C54.4981 34.55 53.8481 33.91 53.0481 33.91Z" fill="#D71920"/>
</g>
</svg>
