<svg width="24" height="24" viewBox="0 0 24 24" fill="none" xmlns="http://www.w3.org/2000/svg">
<path d="M19 20V14M16 17H22M22 9H2M22 11V7.2C22 6.0799 22 5.51984 21.782 5.09202C21.5903 4.7157 21.2843 4.40974 20.908 4.21799C20.4802 4 19.9201 4 18.8 4H5.2C4.0799 4 3.51984 4 3.09202 4.21799C2.7157 4.40973 2.40973 4.71569 2.21799 5.09202C2 5.51984 2 6.0799 2 7.2V14.8C2 15.9201 2 16.4802 2.21799 16.908C2.40973 17.2843 2.71569 17.5903 3.09202 17.782C3.51984 18 4.0799 18 5.2 18H12" stroke="#727272" stroke-width="2" stroke-linecap="round" stroke-linejoin="round"/>
</svg>
