<svg width="24" height="24" viewBox="0 0 24 24" fill="none" xmlns="http://www.w3.org/2000/svg">
<path d="M17.836 10.5L13.836 6.5M2.33594 22L5.72031 21.624C6.1338 21.578 6.34054 21.555 6.53378 21.4925C6.70523 21.437 6.86838 21.3586 7.01882 21.2594C7.18839 21.1475 7.33548 21.0005 7.62966 20.7063L20.836 7.5C21.9405 6.39543 21.9405 4.60457 20.836 3.5C19.7314 2.39543 17.9405 2.39543 16.836 3.5L3.62967 16.7063C3.33548 17.0005 3.18839 17.1475 3.07657 17.3171C2.97737 17.4676 2.89895 17.6307 2.84345 17.8022C2.78089 17.9954 2.75792 18.2021 2.71198 18.6156L2.33594 22Z" stroke="#727272" stroke-width="2" stroke-linecap="round" stroke-linejoin="round"/>
</svg>
