<svg width="41" height="40" viewBox="0 0 41 40" fill="none" xmlns="http://www.w3.org/2000/svg">
<rect x="2.5" y="16" width="17" height="17" rx="8.5" fill="#FE9E9E"/>
<path d="M4.5 7.33301H6.24155C6.56958 7.33301 6.73359 7.33301 6.86558 7.39333C6.98189 7.44648 7.08046 7.53197 7.14953 7.6396C7.22791 7.76173 7.25111 7.9241 7.2975 8.24883L7.92857 12.6663M7.92857 12.6663L9.33109 22.9749C9.50907 24.283 9.59807 24.9371 9.9108 25.4295C10.1864 25.8633 10.5814 26.2083 11.0485 26.4228C11.5785 26.6663 12.2386 26.6663 13.5588 26.6663H24.9693C26.2261 26.6663 26.8544 26.6663 27.3679 26.4402C27.8207 26.2409 28.2091 25.9195 28.4897 25.512C28.8079 25.0498 28.9255 24.4326 29.1606 23.198L30.9255 13.9326C31.0082 13.4981 31.0496 13.2808 30.9896 13.111C30.937 12.962 30.8332 12.8366 30.6967 12.757C30.5411 12.6663 30.32 12.6663 29.8776 12.6663H7.92857ZM15.1667 32.6663C15.1667 33.4027 14.5697 33.9997 13.8333 33.9997C13.097 33.9997 12.5 33.4027 12.5 32.6663C12.5 31.93 13.097 31.333 13.8333 31.333C14.5697 31.333 15.1667 31.93 15.1667 32.6663ZM25.8333 32.6663C25.8333 33.4027 25.2364 33.9997 24.5 33.9997C23.7636 33.9997 23.1667 33.4027 23.1667 32.6663C23.1667 31.93 23.7636 31.333 24.5 31.333C25.2364 31.333 25.8333 31.93 25.8333 32.6663Z" stroke="#2B2B2B" stroke-width="2.5" stroke-linecap="round" stroke-linejoin="round"/>
<path d="M29.8327 19.3333C33.5146 19.3333 36.4993 16.3486 36.4993 12.6667C36.4993 8.98477 33.5146 6 29.8327 6C26.1508 6 23.166 8.98477 23.166 12.6667C23.166 16.3486 26.1508 19.3333 29.8327 19.3333Z" fill="white"/>
<path d="M29.8327 9.16663V12.6667V16.1667M26.3326 12.6667H33.3327M36.4993 12.6667C36.4993 16.3486 33.5146 19.3333 29.8327 19.3333C26.1508 19.3333 23.166 16.3486 23.166 12.6667C23.166 8.98477 26.1508 6 29.8327 6C33.5146 6 36.4993 8.98477 36.4993 12.6667Z" stroke="#2B2B2B" stroke-width="2" stroke-linecap="round" stroke-linejoin="round"/>
</svg>
