<svg width="41" height="40" viewBox="0 0 41 40" fill="none" xmlns="http://www.w3.org/2000/svg">
<rect x="5.5" y="24" width="30" height="16" rx="8" fill="#FE9E9E"/>
<path fill-rule="evenodd" clip-rule="evenodd" d="M23.7 5.13333H17.3C11.409 5.13333 6.63333 9.90896 6.63333 15.8V22.2C6.63333 28.091 11.409 32.8667 17.3 32.8667H23.7C29.591 32.8667 34.3667 28.091 34.3667 22.2V15.8C34.3667 9.90896 29.591 5.13333 23.7 5.13333ZM17.3 3C10.2308 3 4.5 8.73075 4.5 15.8V22.2C4.5 29.2692 10.2308 35 17.3 35H23.7C30.7692 35 36.5 29.2692 36.5 22.2V15.8C36.5 8.73076 30.7692 3 23.7 3H17.3Z" fill="#282B2F"/>
<path d="M34.9565 16.3328H30.6649C29.0708 16.3328 27.7178 15.1638 27.4865 13.5866L27.0059 10.3096" stroke="#282B2F" stroke-width="2.13333"/>
<path d="M20.5 4.28678V10.31V13.1209C20.5 14.895 21.9382 16.3333 23.7124 16.3333H24.103C26.0303 16.3333 27.5238 14.648 27.2921 12.7347L26.6979 7.82845L26.1829 4.10938" stroke="#282B2F" stroke-width="2.13333"/>
<path d="M6.04347 16.3328H10.3351C11.9292 16.3328 13.2822 15.1638 13.5135 13.5866L13.9941 10.3096" stroke="#282B2F" stroke-width="2.13333"/>
<path d="M20.5 3.57617V10.3123V13.1232C20.5 14.8973 19.0618 16.3356 17.2876 16.3356H16.897C14.9697 16.3356 13.4762 14.6503 13.7079 12.737L14.3021 7.83076L14.8171 4.11169" stroke="#282B2F" stroke-width="2.13333"/>
<circle cx="20.656" cy="23.2917" r="2.82872" stroke="#282B2F" stroke-width="1.85769"/>
<path d="M15.6769 32.4155C15.6769 30.5567 17.1837 29.0499 19.0424 29.0499H22.2632C24.1219 29.0499 25.6287 30.5567 25.6287 32.4155C25.6287 33.0883 25.0832 33.6338 24.4104 33.6338H16.8952C16.2224 33.6338 15.6769 33.0883 15.6769 32.4155Z" stroke="#282B2F" stroke-width="1.85769"/>
</svg>
