<svg width="41" height="40" viewBox="0 0 41 40" fill="none" xmlns="http://www.w3.org/2000/svg">
<rect x="23.5" y="3.78711" width="18.0025" height="18.0025" rx="9.00127" transform="rotate(90 23.5 3.78711)" fill="#FE9E9E"/>
<path d="M33.1467 20.2879V15.2817C33.1467 13.0084 33.1467 11.8717 32.7043 11.0034C32.3151 10.2397 31.6941 9.61869 30.9304 9.22953C30.0621 8.78711 28.9254 8.78711 26.6521 8.78711H17.9926C15.7193 8.78711 14.5827 8.78711 13.7144 9.22953C12.9506 9.61869 12.3296 10.2397 11.9405 11.0034C11.498 11.8717 11.498 13.0084 11.498 15.2817V29.3533C11.498 31.6266 11.498 32.7633 11.9405 33.6316C12.3296 34.3954 12.9506 35.0163 13.7144 35.4055C14.5827 35.8479 15.7193 35.8479 17.9926 35.8479H22.3224M25.0284 20.9645H16.9102M19.6163 26.3766H16.9102M27.7345 15.5523H16.9102M30.4406 34.4949V26.3766M26.3815 30.4357H34.4997" stroke="#2B2B2B" stroke-width="2.5" stroke-linecap="round" stroke-linejoin="round"/>
</svg>
