<svg width="20" height="20" viewBox="0 0 20 20" fill="none" xmlns="http://www.w3.org/2000/svg">
<path d="M9.04197 4.73715C9.3516 4.69137 9.67101 4.66681 10 4.66681C13.8894 4.66681 16.4415 8.09893 17.2989 9.45657C17.4027 9.62089 17.4546 9.70305 17.4837 9.82977C17.5055 9.92494 17.5054 10.0751 17.4836 10.1703C17.4546 10.297 17.4023 10.3797 17.2978 10.5451C17.0694 10.9067 16.7211 11.4148 16.2596 11.9659M5.98029 5.97345C4.33306 7.09086 3.21479 8.64331 2.70179 9.4554C2.59755 9.62041 2.54543 9.70291 2.51637 9.82963C2.49455 9.92479 2.49454 10.0749 2.51635 10.1701C2.54539 10.2968 2.59728 10.379 2.70105 10.5433C3.55846 11.9009 6.11064 15.333 10 15.333C11.5682 15.333 12.9191 14.775 14.0291 14.02M3.14315 3.14307L16.8568 16.8568M8.38382 8.38374C7.97021 8.79736 7.71438 9.36876 7.71438 9.99992C7.71438 11.2622 8.73769 12.2855 10 12.2855C10.6312 12.2855 11.2026 12.0297 11.6162 11.6161" stroke="white" stroke-width="1.75" stroke-linecap="round" stroke-linejoin="round"/>
</svg>
