<svg width="24" height="24" viewBox="0 0 24 24" fill="none" xmlns="http://www.w3.org/2000/svg">
<path d="M2.02096 12.7429C1.8791 12.5182 1.80817 12.4059 1.76846 12.2327C1.73864 12.1026 1.73864 11.8974 1.76846 11.7673C1.80817 11.594 1.8791 11.4817 2.02096 11.2571C3.19326 9.40086 6.68271 4.70831 12.0004 4.70831C17.3181 4.70831 20.8076 9.40085 21.9799 11.2571C22.1217 11.4817 22.1927 11.594 22.2324 11.7673C22.2622 11.8974 22.2622 12.1026 22.2324 12.2327C22.1927 12.4059 22.1217 12.5182 21.9799 12.7429C20.8076 14.5991 17.3181 19.2916 12.0004 19.2916C6.68271 19.2916 3.19326 14.5991 2.02096 12.7429Z" stroke="#727272" stroke-width="2" stroke-linecap="round" stroke-linejoin="round"/>
<path d="M12.0004 15.125C13.7263 15.125 15.1254 13.7259 15.1254 12C15.1254 10.2741 13.7263 8.87498 12.0004 8.87498C10.2745 8.87498 8.87542 10.2741 8.87542 12C8.87542 13.7259 10.2745 15.125 12.0004 15.125Z" stroke="#727272" stroke-width="2" stroke-linecap="round" stroke-linejoin="round"/>
</svg>
