<svg width="32" height="32" viewBox="0 0 32 32" fill="none" xmlns="http://www.w3.org/2000/svg">
<g style="mix-blend-mode:multiply">
<circle cx="16" cy="16" r="16" fill="#727272"/>
</g>
<path fill-rule="evenodd" clip-rule="evenodd" d="M15.2002 23.1593V24.7593H16.8002V23.1593C18.4669 22.9726 19.8969 22.2826 21.0902 21.0893C22.2836 19.8959 22.9736 18.4659 23.1602 16.7993H24.7602V15.1993H23.1602C22.9736 13.5326 22.2836 12.1026 21.0902 10.9093C19.8969 9.71592 18.4669 9.02592 16.8002 8.83926V7.23926H15.2002V8.83926C13.5336 9.02592 12.1036 9.71592 10.9102 10.9093C9.7169 12.1026 9.0269 13.5326 8.84023 15.1993H7.24023V16.7993H8.84023C9.0269 18.4659 9.7169 19.8959 10.9102 21.0893C12.1036 22.2826 13.5336 22.9726 15.2002 23.1593Z" fill="white"/>
</svg>
