<svg width="24" height="25" viewBox="0 0 24 25" fill="none" xmlns="http://www.w3.org/2000/svg">
<path d="M14.91 9.5C14.6749 8.83167 14.2108 8.26811 13.6 7.90913C12.9892 7.55016 12.2711 7.41894 11.5728 7.53871C10.8745 7.65849 10.2412 8.02152 9.78492 8.56353C9.32866 9.10553 9.07894 9.79152 9.08 10.5C9.08 12.5 12.08 13.5 12.08 13.5M12 17.5H11.99M2 12.5C2 18.0228 6.47715 22.5 12 22.5C17.5228 22.5 22 18.0228 22 12.5C22 6.97715 17.5228 2.5 12 2.5C6.47715 2.5 2 6.97715 2 12.5Z" stroke="#727272" stroke-width="2" stroke-linecap="round" stroke-linejoin="round"/>
</svg>
