<svg width="24" height="25" viewBox="0 0 24 25" fill="none" xmlns="http://www.w3.org/2000/svg">
<path fill-rule="evenodd" clip-rule="evenodd" d="M9 3.70508H15C18.0376 3.70508 20.5 6.16751 20.5 9.20508V15.2051C20.5 18.2426 18.0376 20.7051 15 20.7051H9C5.96243 20.7051 3.5 18.2426 3.5 15.2051V9.20508C3.5 6.16751 5.96243 3.70508 9 3.70508ZM2 9.20508C2 5.33909 5.13401 2.20508 9 2.20508H15C18.866 2.20508 22 5.33908 22 9.20508V15.2051C22 19.0711 18.866 22.2051 15 22.2051H9C5.13401 22.2051 2 19.0711 2 15.2051V9.20508ZM12 15.7051C10.067 15.7051 8.5 14.1381 8.5 12.2051C8.5 10.2721 10.067 8.70508 12 8.70508C13.933 8.70508 15.5 10.2721 15.5 12.2051C15.5 14.1381 13.933 15.7051 12 15.7051ZM7 12.2051C7 9.44365 9.23858 7.20508 12 7.20508C14.7614 7.20508 17 9.44365 17 12.2051C17 14.9665 14.7614 17.2051 12 17.2051C9.23858 17.2051 7 14.9665 7 12.2051Z" fill="black"/>
</svg>
