<svg width="18" height="18" viewBox="0 0 18 18" fill="none" xmlns="http://www.w3.org/2000/svg">
<path fill-rule="evenodd" clip-rule="evenodd" d="M8.20023 16.1593V17.7593H9.80023V16.1593C11.4669 15.9726 12.8969 15.2826 14.0902 14.0893C15.2836 12.8959 15.9736 11.4659 16.1602 9.79926H17.7602V8.19926H16.1602C15.9736 6.53259 15.2836 5.10259 14.0902 3.90926C12.8969 2.71592 11.4669 2.02592 9.80023 1.83926V0.239258H8.20023V1.83926C6.53357 2.02592 5.10357 2.71592 3.91023 3.90926C2.7169 5.10259 2.0269 6.53259 1.84023 8.19926H0.240234V9.79926H1.84023C2.0269 11.4659 2.7169 12.8959 3.91023 14.0893C5.10357 15.2826 6.53357 15.9726 8.20023 16.1593Z" fill="white"/>
</svg>
